<?xml version="1.0" encoding="utf-8"?>
<!-- Generator: Adobe Illustrator 24.0.0, SVG Export Plug-In . SVG Version: 6.00 Build 0)  -->
<svg version="1.1" id="Calque_1" xmlns="http://www.w3.org/2000/svg" xmlns:xlink="http://www.w3.org/1999/xlink" x="0px" y="0px"
	 viewBox="0 0 1169 125" style="enable-background:new 0 0 1169 125;transform:scale(-1,1)" xml:space="preserve">
<style type="text/css">
	.st0{fill:url(#SVGID_1_);}
</style>
<linearGradient id="SVGID_1_" gradientUnits="userSpaceOnUse" x1="16.1356" y1="57.2175" x2="1141.2164" y2="57.2175">
	<stop  offset="0" style="stop-color:#B8FA7C"/>
	<stop  offset="1" style="stop-color:#41963C"/>
</linearGradient>
<path class="st0" d="M17.42,45.57c-1.04-0.17-0.93-1.69,0.12-1.74c29.86-1.36,41.71-1.64,59.09-2.53c4.67-0.24,28.21,0.62,39.47,0
	c26-1.43,44.38,1.24,50.16,1.61c38.55,2.5,78.66,0.78,115.58-3.23c48.16-5.23,47.97,0.89,180.8,3.23
	c48.44,0.85,122.26-0.08,269.9-1.94c4.95-0.06,47.85-0.47,133.66-1.29c63.11-0.6,95.01-0.89,111.71,0
	c54.41,2.89,60.67,3.42,89.75,3.23c36.64-0.24,55.44-4.39,66.91-0.24c11.94,4.32,5.99,23.88-3.63,29.94
	c-6.18,3.89-13.95,4.4-25.91,1.78c-19.3-4.23-30.99,0.97-51.58,0.48c-15.91-0.37-18.06,1.46-98.07-0.24
	c-80.14-1.7-120.69-2.39-126.4-2.42c-73.28-0.41-98.76,0.78-161.02,3.63c-72.77,3.34-60.29-2.82-229.87-7.1
	c-100.49-2.54-172.2-2.08-220.57-1.08c-22.56,0.47-45.14-0.54-67.48-3.72c-20.06-2.86-48.91-3.01-79.36-2.3
	c-24.53,0.57-42.84,0.24-53.71-0.12c-1.09-0.04-1.13-1.63-0.05-1.75l40.85-4.37c1.76-0.19,1.83-2.71,0.09-3.01L17.42,45.57z"/>
</svg>
